<?xml version="1.0" encoding="UTF-8"?>
<svg width="129px" height="129px" viewBox="0 0 129 129" version="1.1" xmlns="http://www.w3.org/2000/svg" xmlns:xlink="http://www.w3.org/1999/xlink">
    <title>128x128</title>
    <g id="Page-1" stroke="none" stroke-width="1" fill="none" fill-rule="evenodd">
        <g id="128x128" transform="translate(0.500000, 0.317926)">
            <rect id="Rectangle" fill="#099371" x="0.0897615708" y="0.122448152" width="127.820477" height="127.820477"></rect>
            <path d="M85.9705573,21.3279731 L99.8076117,21.3279731 C96.44228,25.3026196 94.3715067,27.8729974 93.5952918,29.0391065 C92.20263,31.1313049 90.5445068,34.6274715 90.3328479,36.6705361 C90.2469598,37.4995822 90.3328479,39.4277535 90.6104365,40.6240402 C90.8880251,41.8203269 91.8472087,43.5261989 92.3309414,44.2050084 C93.3005714,45.565665 95.986024,49.0699524 97.5989384,50.7710392 C98.6738107,51.9046709 101.288681,54.5876334 103.285734,59.0293643 C104.337469,61.368574 105.012894,64.501691 105.012894,66.8340064 C105.012894,67.9300498 105.012894,69.6367878 104.74871,71.3296189 C104.484526,73.0224501 103.74307,75.4180564 103.457711,76.1009279 C102.45922,78.4903418 100.55572,82.0346778 99.8076117,83.1842562 C99.5422985,83.5919487 98.4799943,85.4582021 97.2059905,87.4269515 C96.1041465,89.1296581 94.7951718,90.9357203 94.2952849,91.6190373 C93.2174053,93.0924375 87.3569407,99.9956057 85.6173054,101.960652 C84.4575486,103.270682 81.608423,106.201348 77.0699287,110.752647 L33.3629583,110.752647 C44.2664298,104.214096 52.566297,98.7364223 58.2625598,94.3196261 C66.806954,87.6944317 71.2352244,84.1389851 74.7726317,80.6376439 C78.310039,77.1363028 82.0181787,73.4523376 83.8999189,70.4797256 C84.8933567,68.9103777 86.2816795,66.6492437 86.2816795,63.8798415 C86.2816795,61.1104394 85.3175097,58.4641476 84.2146396,56.930591 C83.2864803,55.6399723 80.4949393,51.3246032 79.3396906,49.2940926 C78.1844419,47.2635819 76.6920628,42.7440863 76.6920628,39.9169711 C76.6920628,36.3891694 78.0343821,32.5622548 80.8915894,28.2834879 C81.8535287,26.8429505 83.546518,24.5244456 85.9705573,21.3279731 Z" id="Path-2" fill="#FFFFFF"></path>
            <path d="M26.4240546,57.7885996 C29.7954508,56.6752664 32.0396438,55.9824559 33.1566338,55.7101681 C34.8321189,55.3017366 38.2479476,54.6779893 39.8875563,54.5598603 C41.7470315,54.4258907 45.1436466,54.4258907 47.1099082,54.5598603 C50.5446641,54.7938847 54.5822711,55.7289169 56.7664546,56.3868831 C58.9506381,57.0448493 62.3664294,58.3273726 64.6143141,59.459199 C65.9505785,60.1320179 68.1465827,61.3413799 71.2023267,63.087285 L71.2023267,76.4484605 C64.7188776,72.0183276 58.8244876,68.9261446 53.5191568,67.1719117 C51.8159744,66.6087463 48.5725884,65.8278324 45.0315826,65.6854093 C41.733709,65.5527652 38.8718462,65.7659795 36.4799094,66.2764403 C35.2931942,66.5296959 32.6361937,67.3479853 30.5900037,68.2171492 C29.7080129,68.5917941 28.3193632,69.2903472 26.4240546,70.3128084 L26.4240546,57.7885996 Z" id="Path-3" fill="#FFFFFF"></path>
            <path d="M36.7981274,11.7420925 L50.3233216,11.7420925 C52.4598419,14.7994209 53.8911857,17.3477743 54.6173532,19.3871526 C55.2387079,21.1321734 55.8272664,22.6617371 56.2181219,25.0106239 C56.5044202,26.7311638 56.7105704,29.2725443 56.6158965,30.7496697 C56.1653966,37.7784836 54.3400681,44.7136258 51.139911,51.5550966 C49.4395355,51.2817583 48.2298607,51.1021399 47.5108865,51.0162414 C45.6570993,50.7947625 42.3826419,50.8155261 41.2486746,50.8883323 C39.6741868,50.9894221 38.1906711,51.2116768 36.7981274,51.5550966 C41.5329204,43.4450522 43.9003169,36.250743 43.9003169,29.972169 C43.9003169,23.693595 41.5329204,17.6169029 36.7981274,11.7420925 Z" id="Path-4" fill="#FFFFFF"></path>
        </g>
    </g>
</svg>